<mxfile host="Electron" agent="Mozilla/5.0 (Windows NT 10.0; Win64; x64) AppleWebKit/537.36 (KHTML, like Gecko) draw.io/24.5.1 Chrome/124.0.6367.207 Electron/30.0.6 Safari/537.36" modified="2025-04-01T21:55:27.113Z" etag="why4ZuuBA7NOCSXSwaDH" version="24.5.1" type="device">
  <diagram name="Page-1" id="GN0LHeGxFTrduZDwqnUo">
    <mxGraphModel dx="1400" dy="1765" grid="1" gridSize="10" guides="1" tooltips="1" connect="1" arrows="1" fold="1" page="1" pageScale="1" pageWidth="850" pageHeight="1100" math="0" shadow="0">
      <root>
        <mxCell id="0" />
        <mxCell id="1" parent="0" />
        <object placeholders="1" c4Name="HR management system" c4Type="SystemScopeBoundary" c4Application="Software System" label="&lt;font style=&quot;font-size: 16px&quot;&gt;&lt;b&gt;&lt;div style=&quot;text-align: left&quot;&gt;%c4Name%&lt;/div&gt;&lt;/b&gt;&lt;/font&gt;&lt;div style=&quot;text-align: left&quot;&gt;[%c4Application%]&lt;/div&gt;" id="zxHCkzfRApsNKAAt-juH-1">
          <mxCell style="rounded=1;fontSize=11;whiteSpace=wrap;html=1;dashed=1;arcSize=20;fillColor=none;strokeColor=#666666;fontColor=#333333;labelBackgroundColor=none;align=left;verticalAlign=bottom;labelBorderColor=none;spacingTop=0;spacing=10;dashPattern=8 4;metaEdit=1;rotatable=0;perimeter=rectanglePerimeter;noLabel=0;labelPadding=0;allowArrows=0;connectable=0;expand=0;recursiveResize=0;editable=1;pointerEvents=0;absoluteArcSize=1;points=[[0.25,0,0],[0.5,0,0],[0.75,0,0],[1,0.25,0],[1,0.5,0],[1,0.75,0],[0.75,1,0],[0.5,1,0],[0.25,1,0],[0,0.75,0],[0,0.5,0],[0,0.25,0]];" parent="1" vertex="1">
            <mxGeometry x="130" width="510" height="520" as="geometry" />
          </mxCell>
        </object>
        <mxCell id="zxHCkzfRApsNKAAt-juH-2" value="&amp;nbsp;logs Attendancs" style="ellipse;whiteSpace=wrap;html=1;" parent="1" vertex="1">
          <mxGeometry x="300" y="240" width="140" height="70" as="geometry" />
        </mxCell>
        <mxCell id="gGgRESYQvOKFBocbA8zS-13" style="edgeStyle=orthogonalEdgeStyle;rounded=0;orthogonalLoop=1;jettySize=auto;html=1;exitX=0.5;exitY=0;exitDx=0;exitDy=0;exitPerimeter=0;entryX=0;entryY=0.5;entryDx=0;entryDy=0;" edge="1" parent="1" source="zxHCkzfRApsNKAAt-juH-3" target="zxHCkzfRApsNKAAt-juH-27">
          <mxGeometry relative="1" as="geometry" />
        </mxCell>
        <mxCell id="gGgRESYQvOKFBocbA8zS-14" style="edgeStyle=orthogonalEdgeStyle;rounded=0;orthogonalLoop=1;jettySize=auto;html=1;exitX=1;exitY=0.3333333333333333;exitDx=0;exitDy=0;exitPerimeter=0;entryX=0;entryY=0.5;entryDx=0;entryDy=0;" edge="1" parent="1" source="zxHCkzfRApsNKAAt-juH-3" target="zxHCkzfRApsNKAAt-juH-23">
          <mxGeometry relative="1" as="geometry" />
        </mxCell>
        <mxCell id="gGgRESYQvOKFBocbA8zS-15" style="edgeStyle=orthogonalEdgeStyle;rounded=0;orthogonalLoop=1;jettySize=auto;html=1;exitX=0.5;exitY=0;exitDx=0;exitDy=0;exitPerimeter=0;entryX=0;entryY=0.5;entryDx=0;entryDy=0;" edge="1" parent="1" source="zxHCkzfRApsNKAAt-juH-3" target="zxHCkzfRApsNKAAt-juH-19">
          <mxGeometry relative="1" as="geometry" />
        </mxCell>
        <mxCell id="zxHCkzfRApsNKAAt-juH-3" value="Manager" style="shape=umlActor;html=1;verticalLabelPosition=bottom;verticalAlign=top;align=center;" parent="1" vertex="1">
          <mxGeometry x="40" y="350" width="60" height="120" as="geometry" />
        </mxCell>
        <mxCell id="gGgRESYQvOKFBocbA8zS-2" style="edgeStyle=orthogonalEdgeStyle;rounded=0;orthogonalLoop=1;jettySize=auto;html=1;exitX=0;exitY=1;exitDx=0;exitDy=0;exitPerimeter=0;entryX=0.5;entryY=1;entryDx=0;entryDy=0;" edge="1" parent="1" source="zxHCkzfRApsNKAAt-juH-4" target="zxHCkzfRApsNKAAt-juH-11">
          <mxGeometry relative="1" as="geometry" />
        </mxCell>
        <mxCell id="gGgRESYQvOKFBocbA8zS-3" style="edgeStyle=orthogonalEdgeStyle;rounded=0;orthogonalLoop=1;jettySize=auto;html=1;exitX=0.5;exitY=0;exitDx=0;exitDy=0;exitPerimeter=0;entryX=0.5;entryY=0;entryDx=0;entryDy=0;" edge="1" parent="1" source="zxHCkzfRApsNKAAt-juH-4" target="zxHCkzfRApsNKAAt-juH-13">
          <mxGeometry relative="1" as="geometry" />
        </mxCell>
        <mxCell id="gGgRESYQvOKFBocbA8zS-4" style="edgeStyle=orthogonalEdgeStyle;rounded=0;orthogonalLoop=1;jettySize=auto;html=1;exitX=0.25;exitY=0.1;exitDx=0;exitDy=0;exitPerimeter=0;entryX=1;entryY=0.5;entryDx=0;entryDy=0;" edge="1" parent="1" source="zxHCkzfRApsNKAAt-juH-4" target="zxHCkzfRApsNKAAt-juH-7">
          <mxGeometry relative="1" as="geometry" />
        </mxCell>
        <mxCell id="gGgRESYQvOKFBocbA8zS-9" style="edgeStyle=orthogonalEdgeStyle;rounded=0;orthogonalLoop=1;jettySize=auto;html=1;exitX=0.5;exitY=0;exitDx=0;exitDy=0;exitPerimeter=0;entryX=1;entryY=0.5;entryDx=0;entryDy=0;" edge="1" parent="1" source="zxHCkzfRApsNKAAt-juH-4" target="zxHCkzfRApsNKAAt-juH-9">
          <mxGeometry relative="1" as="geometry" />
        </mxCell>
        <mxCell id="zxHCkzfRApsNKAAt-juH-4" value="Employee" style="shape=umlActor;html=1;verticalLabelPosition=bottom;verticalAlign=top;align=center;" parent="1" vertex="1">
          <mxGeometry x="690" y="350" width="70" height="130" as="geometry" />
        </mxCell>
        <mxCell id="gGgRESYQvOKFBocbA8zS-6" style="edgeStyle=orthogonalEdgeStyle;rounded=0;orthogonalLoop=1;jettySize=auto;html=1;exitX=1;exitY=1;exitDx=0;exitDy=0;exitPerimeter=0;entryX=0.5;entryY=0;entryDx=0;entryDy=0;" edge="1" parent="1" source="zxHCkzfRApsNKAAt-juH-5" target="zxHCkzfRApsNKAAt-juH-9">
          <mxGeometry relative="1" as="geometry" />
        </mxCell>
        <mxCell id="gGgRESYQvOKFBocbA8zS-7" style="edgeStyle=orthogonalEdgeStyle;rounded=0;orthogonalLoop=1;jettySize=auto;html=1;exitX=0;exitY=1;exitDx=0;exitDy=0;exitPerimeter=0;entryX=0;entryY=0.5;entryDx=0;entryDy=0;" edge="1" parent="1" source="zxHCkzfRApsNKAAt-juH-5" target="zxHCkzfRApsNKAAt-juH-2">
          <mxGeometry relative="1" as="geometry" />
        </mxCell>
        <mxCell id="gGgRESYQvOKFBocbA8zS-8" style="edgeStyle=orthogonalEdgeStyle;rounded=0;orthogonalLoop=1;jettySize=auto;html=1;exitX=0;exitY=0.3333333333333333;exitDx=0;exitDy=0;exitPerimeter=0;entryX=1;entryY=0.5;entryDx=0;entryDy=0;" edge="1" parent="1" source="zxHCkzfRApsNKAAt-juH-5" target="zxHCkzfRApsNKAAt-juH-17">
          <mxGeometry relative="1" as="geometry" />
        </mxCell>
        <mxCell id="gGgRESYQvOKFBocbA8zS-10" style="edgeStyle=orthogonalEdgeStyle;rounded=0;orthogonalLoop=1;jettySize=auto;html=1;exitX=0;exitY=0.3333333333333333;exitDx=0;exitDy=0;exitPerimeter=0;entryX=0;entryY=0.5;entryDx=0;entryDy=0;" edge="1" parent="1" source="zxHCkzfRApsNKAAt-juH-5" target="zxHCkzfRApsNKAAt-juH-21">
          <mxGeometry relative="1" as="geometry">
            <Array as="points">
              <mxPoint x="690" y="10" />
              <mxPoint x="130" y="10" />
              <mxPoint x="130" y="135" />
            </Array>
          </mxGeometry>
        </mxCell>
        <mxCell id="gGgRESYQvOKFBocbA8zS-11" style="edgeStyle=orthogonalEdgeStyle;rounded=0;orthogonalLoop=1;jettySize=auto;html=1;exitX=0;exitY=0.3333333333333333;exitDx=0;exitDy=0;exitPerimeter=0;entryX=0.5;entryY=0;entryDx=0;entryDy=0;" edge="1" parent="1" source="zxHCkzfRApsNKAAt-juH-5" target="zxHCkzfRApsNKAAt-juH-19">
          <mxGeometry relative="1" as="geometry">
            <Array as="points">
              <mxPoint x="690" />
              <mxPoint x="320" />
            </Array>
          </mxGeometry>
        </mxCell>
        <mxCell id="gGgRESYQvOKFBocbA8zS-12" style="edgeStyle=orthogonalEdgeStyle;rounded=0;orthogonalLoop=1;jettySize=auto;html=1;exitX=0;exitY=0.3333333333333333;exitDx=0;exitDy=0;exitPerimeter=0;entryX=1;entryY=0.5;entryDx=0;entryDy=0;" edge="1" parent="1" source="zxHCkzfRApsNKAAt-juH-5" target="zxHCkzfRApsNKAAt-juH-15">
          <mxGeometry relative="1" as="geometry" />
        </mxCell>
        <mxCell id="zxHCkzfRApsNKAAt-juH-5" value="HR" style="shape=umlActor;html=1;verticalLabelPosition=bottom;verticalAlign=top;align=center;" parent="1" vertex="1">
          <mxGeometry x="690" y="-10" width="70" height="140" as="geometry" />
        </mxCell>
        <mxCell id="zxHCkzfRApsNKAAt-juH-7" value="Request vacation" style="ellipse;whiteSpace=wrap;html=1;" parent="1" vertex="1">
          <mxGeometry x="490" y="410" width="140" height="70" as="geometry" />
        </mxCell>
        <mxCell id="zxHCkzfRApsNKAAt-juH-9" value="view salary details" style="ellipse;whiteSpace=wrap;html=1;" parent="1" vertex="1">
          <mxGeometry x="440" y="200" width="140" height="70" as="geometry" />
        </mxCell>
        <mxCell id="zxHCkzfRApsNKAAt-juH-11" value="submit complaint" style="ellipse;whiteSpace=wrap;html=1;" parent="1" vertex="1">
          <mxGeometry x="340" y="410" width="140" height="70" as="geometry" />
        </mxCell>
        <mxCell id="zxHCkzfRApsNKAAt-juH-13" value="send suggestions" style="ellipse;whiteSpace=wrap;html=1;" parent="1" vertex="1">
          <mxGeometry x="500" y="290" width="140" height="70" as="geometry" />
        </mxCell>
        <mxCell id="zxHCkzfRApsNKAAt-juH-15" value="manage employee.&lt;div&gt;(add,edit,delete)&lt;/div&gt;" style="ellipse;whiteSpace=wrap;html=1;" parent="1" vertex="1">
          <mxGeometry x="410" y="10" width="140" height="70" as="geometry" />
        </mxCell>
        <mxCell id="zxHCkzfRApsNKAAt-juH-17" value="processes salary payment" style="ellipse;whiteSpace=wrap;html=1;" parent="1" vertex="1">
          <mxGeometry x="440" y="90" width="140" height="70" as="geometry" />
        </mxCell>
        <mxCell id="zxHCkzfRApsNKAAt-juH-19" value="approves or reject vacation request" style="ellipse;whiteSpace=wrap;html=1;" parent="1" vertex="1">
          <mxGeometry x="260" y="40" width="140" height="70" as="geometry" />
        </mxCell>
        <mxCell id="zxHCkzfRApsNKAAt-juH-21" value="resolve employee complaints" style="ellipse;whiteSpace=wrap;html=1;" parent="1" vertex="1">
          <mxGeometry x="150" y="100" width="140" height="70" as="geometry" />
        </mxCell>
        <mxCell id="zxHCkzfRApsNKAAt-juH-23" value="send announcements/message to employees" style="ellipse;whiteSpace=wrap;html=1;" parent="1" vertex="1">
          <mxGeometry x="160" y="390" width="140" height="70" as="geometry" />
        </mxCell>
        <mxCell id="zxHCkzfRApsNKAAt-juH-27" value="oversees attendance and performance report" style="ellipse;whiteSpace=wrap;html=1;" parent="1" vertex="1">
          <mxGeometry x="140" y="280" width="140" height="70" as="geometry" />
        </mxCell>
        <mxCell id="gGgRESYQvOKFBocbA8zS-1" style="edgeStyle=orthogonalEdgeStyle;rounded=0;orthogonalLoop=1;jettySize=auto;html=1;exitX=0;exitY=0.3333333333333333;exitDx=0;exitDy=0;exitPerimeter=0;entryX=0;entryY=1;entryDx=0;entryDy=0;" edge="1" parent="1" source="zxHCkzfRApsNKAAt-juH-4" target="zxHCkzfRApsNKAAt-juH-2">
          <mxGeometry relative="1" as="geometry" />
        </mxCell>
      </root>
    </mxGraphModel>
  </diagram>
</mxfile>
